<?xml version="1.0" encoding="utf-8"?>
<!-- Generator: Adobe Illustrator 21.0.2, SVG Export Plug-In . SVG Version: 6.00 Build 0)  -->
<svg version="1.1" id="Layer_1" xmlns="http://www.w3.org/2000/svg" xmlns:xlink="http://www.w3.org/1999/xlink" x="0px" y="0px"
	 viewBox="0 0 1190.5 841.9" style="enable-background:new 0 0 1190.5 841.9;" xml:space="preserve">
<style type="text/css">
	.st0{fill:#3A3A3A;}
	.st1{fill:url(#SVGID_1_);}
	.st2{fill:url(#SVGID_2_);}
</style>
<g>
	<path class="st0" d="M19.3,593.6c-5.3-2.9-9.4-9-9.4-17.2c0-11,8.6-20,20-20c4.1,0,7.8,1.2,10.6,2.9c20.8,13.9,42.5,20.8,62.1,20.8
		c21.2,0,33.5-9,33.5-23.3v-0.8c0-16.8-22.9-22.5-48.2-30.2c-31.9-9-67.4-22.1-67.4-63.3v-0.8c0-40.9,33.9-65.8,76.8-65.8
		c22.9,0,47,6.5,67.8,17.6c6.9,3.7,11.8,10.2,11.8,18.8c0,11.4-9,20-20.4,20c-4.1,0-6.5-0.8-9.8-2.5c-17.6-9-35.5-14.7-50.7-14.7
		c-19.2,0-30.2,9-30.2,21.2v0.8c0,15.9,23.3,22.5,48.6,30.6c31.5,9.8,67,24.1,67,62.9v0.8c0,45.4-35.1,67.8-80.1,67.8
		C74.1,619.4,44.3,610.8,19.3,593.6z"/>
	<path class="st0" d="M207.7,399.6v-36.8c0-13.5,11-24.5,24.9-24.5c13.5,0,24.5,11,24.5,24.5v36.8h38.8c11.8,0,21.7,9.4,21.7,21.2
		c0,11.8-9.8,21.2-21.7,21.2h-38.8v105.8c0,19.2,9.8,27,26.6,27c5.7,0,10.6-1.2,12.3-1.2c11,0,20.8,9,20.8,20.4
		c0,9-6.1,16.3-13.1,19.2c-10.6,3.7-20.8,5.7-33.9,5.7c-36.4,0-62.1-15.9-62.1-63.3V442.1V399.6z"/>
	<path class="st0" d="M316.8,508.7v-0.8c0-61.7,49-112.8,115.2-112.8c66.2,0,114.8,50.3,114.8,111.9v0.8
		c0,61.3-49,112.4-115.6,112.4C365.4,620.2,316.8,569.9,316.8,508.7z M497.4,508.7v-0.8c0-38-27.4-69.5-66.2-69.5
		c-39.6,0-65,31.1-65,68.6v0.8c0,37.6,27.4,69,65.8,69C472,576.9,497.4,545.8,497.4,508.7z"/>
	<path class="st0" d="M566.4,422c0-13.9,10.6-24.9,24.5-24.9c13.9,0,24.9,11,24.9,24.9v10.6c13.9-20,33.9-37.6,67.4-37.6
		c48.6,0,76.8,32.7,76.8,82.5v115.2c0,13.9-10.6,24.5-24.5,24.5c-13.9,0-24.9-10.6-24.9-24.5V492.7c0-33.5-16.8-52.7-46.2-52.7
		c-28.6,0-48.6,20-48.6,53.5v99.3c0,13.9-11,24.5-24.9,24.5c-13.5,0-24.5-10.6-24.5-24.5V422z"/>
	<path class="st0" d="M868.3,492.3H937c-3.3-31.9-22.1-56.8-54.7-56.8c-30.2,0-51.5,23.3-56,56.8c-2.8,17.7,0.4,32.7,0.4,32.7
		c5.3,35.1,30.2,54.7,62.1,54.7c20.8,0,37.2-7.4,51.1-18.8c3.7-2.9,6.9-4.5,12.7-4.5c11,0,19.6,8.6,19.6,20c0,6.1-2.9,11.4-6.5,15.1
		c-19.6,17.6-44.1,28.6-77.6,28.6c-62.5,0-110.7-45.4-110.7-111.9v-0.8c0-61.7,43.7-112.4,105.4-112.4
		c68.6,0,102.6,56.4,102.6,106.2c0,13.9-10.6,23.7-23.3,23.7h-93.6c0,0-14.5-0.6-14.7-16.4C853.5,503.5,856.9,493.4,868.3,492.3z"/>
</g>
<linearGradient id="SVGID_1_" gradientUnits="userSpaceOnUse" x1="1046.8486" y1="280.0948" x2="1183.467" y2="280.0948">
	<stop  offset="0" style="stop-color:#1C5229"/>
	<stop  offset="1" style="stop-color:#149547"/>
</linearGradient>
<path class="st1" d="M1176.6,263.5l-113.1-113.1c-4.6-4.6-10.6-6.9-16.6-6.9v74.9l45.1,45.1c9.2,9.2,9.2,24.1,0,33.3l-45.1,45.1
	v74.9c6,0,12-2.3,16.6-6.9l113.1-113.1C1185.8,287.5,1185.8,272.6,1176.6,263.5z"/>
<linearGradient id="SVGID_2_" gradientUnits="userSpaceOnUse" x1="910.2301" y1="280.0948" x2="1046.8486" y2="280.0948">
	<stop  offset="0" style="stop-color:#5FAD46"/>
	<stop  offset="1" style="stop-color:#70BF44"/>
</linearGradient>
<path class="st2" d="M1046.8,143.5c-6,0-12,2.3-16.6,6.9L917.1,263.5c-9.2,9.2-9.2,24.1,0,33.3l113.1,113.1
	c4.6,4.6,10.6,6.9,16.6,6.9V143.5z"/>
</svg>
