<?xml version="1.0" encoding="UTF-8" standalone="no"?>
<!-- Created with Inkscape (http://www.inkscape.org/) -->

<svg
   xmlns:dc="http://purl.org/dc/elements/1.1/"
   xmlns:cc="http://creativecommons.org/ns#"
   xmlns:rdf="http://www.w3.org/1999/02/22-rdf-syntax-ns#"
   xmlns:svg="http://www.w3.org/2000/svg"
   xmlns="http://www.w3.org/2000/svg"
   xmlns:sodipodi="http://sodipodi.sourceforge.net/DTD/sodipodi-0.dtd"
   xmlns:inkscape="http://www.inkscape.org/namespaces/inkscape"
   width="84.3601mm"
   height="12.039177mm"
   viewBox="0 0 298.91374 42.658501"
   id="svg5774"
   version="1.1"
   inkscape:version="0.91 r13725"
   sodipodi:docname="lojaintegrada.svg">
  <defs
     id="defs5776" />
  <sodipodi:namedview
     id="base"
     pagecolor="#ffffff"
     bordercolor="#666666"
     borderopacity="1.0"
     inkscape:pageopacity="0.0"
     inkscape:pageshadow="2"
     inkscape:zoom="0.7"
     inkscape:cx="-80.565701"
     inkscape:cy="-157.32448"
     inkscape:document-units="px"
     inkscape:current-layer="layer1"
     showgrid="false"
     fit-margin-top="0"
     fit-margin-left="0"
     fit-margin-right="0"
     fit-margin-bottom="0"
     inkscape:window-width="1366"
     inkscape:window-height="704"
     inkscape:window-x="0"
     inkscape:window-y="27"
     inkscape:window-maximized="1" />
  <metadata
     id="metadata5779">
    <rdf:RDF>
      <cc:Work
         rdf:about="">
        <dc:format>image/svg+xml</dc:format>
        <dc:type
           rdf:resource="http://purl.org/dc/dcmitype/StillImage" />
        <dc:title></dc:title>
      </cc:Work>
    </rdf:RDF>
  </metadata>
  <g
     inkscape:label="Camada 1"
     inkscape:groupmode="layer"
     id="layer1"
     transform="translate(-393.40027,-236.74729)">
    <path
       inkscape:connector-curvature="0"
       id="path158"
       style="fill:#ff3d29;fill-opacity:1;fill-rule:nonzero;stroke:none"
       d="m 431.82989,267.06956 c 0,1.53625 -1.09125,3.415 -2.42625,4.175 l -13.2475,7.53125 c -1.33625,0.76 -2.4275,0.125 -2.4275,-1.41375 l 0,-15.705 c 0,-1.54 1.09125,-3.415 2.4275,-4.1775 l 13.2475,-7.52875 c 1.335,-0.7625 2.42625,-0.1275 2.42625,1.41125 l 0,15.7075 z"
       inkscape:export-filename="/home/pgrangeiro/Projetos/pythonsudeste2017-site/images/sponsors/lojaintegrada.png"
       inkscape:export-xdpi="210.97829"
       inkscape:export-ydpi="210.97829" />
    <path
       inkscape:connector-curvature="0"
       id="path162"
       style="fill:#8fff00;fill-opacity:1;fill-rule:nonzero;stroke:none"
       d="m 411.50277,261.65694 c 0,-1.54 -1.095,-3.415 -2.43125,-4.175 l -13.24625,-7.53375 c -1.33375,-0.76 -2.425,-0.125 -2.425,1.41625 l 0,15.7075 c 0,1.53625 1.09125,3.4125 2.425,4.1725 l 13.24625,7.53125 c 1.33625,0.7625 2.43125,0.1225 2.43125,-1.41125 l 0,-15.7075 z"
       inkscape:export-filename="/home/pgrangeiro/Projetos/pythonsudeste2017-site/images/sponsors/lojaintegrada.png"
       inkscape:export-xdpi="210.97829"
       inkscape:export-ydpi="210.97829" />
    <path
       inkscape:connector-curvature="0"
       id="path166"
       style="fill:#5affbb;fill-opacity:1;fill-rule:nonzero;stroke:none"
       d="m 415.14414,237.30394 c -1.34125,-0.7525 -3.53125,-0.74 -4.865,0.025 l -13.3975,7.64125 c -1.335,0.75875 -1.325,1.9925 0.0163,2.73625 l 13.185,7.3075 c 1.34375,0.7475 3.53625,0.7375 4.875,-0.02 l 13.38625,-7.5875 c 1.3375,-0.75375 1.33375,-1.9875 -0.007,-2.73375 l -13.1925,-7.36875 z"
       inkscape:export-filename="/home/pgrangeiro/Projetos/pythonsudeste2017-site/images/sponsors/lojaintegrada.png"
       inkscape:export-xdpi="210.97829"
       inkscape:export-ydpi="210.97829" />
    <path
       d="m 524.45415,241.84444 -5.97375,0 0,3.8475 5.97375,0 0,-3.8475 z m 111.01875,24.14125 -3.52,0 c -2.34375,0 -3.51375,-0.81125 -3.51375,-2.43375 0,-1.76375 2.34375,-2.65125 7.03375,-2.65125 l 0,5.085 z m -0.365,-18.70125 c -1.45125,-0.24625 -2.84875,-0.37125 -4.19375,-0.37125 -2.63376,0 -5.09875,0.46375 -7.38751,1.39125 l 0,4.88875 c 2.74,-0.8575 5.11125,-1.2825 7.12375,-1.2825 0.53751,0 1.05126,0.03 1.54501,0.0875 2.18625,0 3.2775,1.24625 3.2775,3.73375 l 0,1.3475 c -8.685,0 -13.03376,2.3025 -13.03376,6.90625 0,4.6075 3.175,6.9075 9.51375,6.9075 l 9.5175,0 0,-15.16125 c 0,-4.9225 -2.1225,-7.74 -6.3625,-8.4475 m -97.14,0.0225 -9.515,0.21625 0,23.15 5.995,0 0,-18.46 3.9525,0 c 2.05626,0 3.085,1.175 3.085,3.51875 l 0,14.94125 5.9925,0 0,-14.72125 c 0,-5.7675 -3.17,-8.645 -9.51,-8.645 m 19.95375,-6.51375 -5.995,0 0,6.51375 -3.2575,0 0,4.90625 3.2575,0 0,11.12125 c 0,4.895 2.44876,7.33875 7.3425,7.33875 2.1425,0 3.865,-0.325 5.17,-0.97375 l 0,-4.32125 c -1.2625,0.25875 -2.405,0.3875 -3.43374,0.3875 -2.05751,0 -3.08376,-1.025 -3.08376,-3.08375 l 0,-10.46875 6.5175,0 0,-4.90625 -6.5175,0 0,-6.51375 z m 51.93125,8.7525 0,21.1275 5.9925,0 0,-17.6975 c 0.84,-0.50625 2.01,-0.7625 3.5175,-0.7625 l 1.89375,0 0,-4.8625 -1.89375,-0.0437 c -4.9925,0 -8.16375,0.74375 -9.51,2.23875 m -9.085,15.7 c -1.285,0.49125 -2.60375,0.74 -3.95375,0.74 -2.0525,0 -3.0825,-1.245 -3.0825,-3.7375 l 0,-6.51625 c 0,-2.4875 1.03,-3.73375 3.0825,-3.73375 l 3.95375,0.2375 0,13.01 z m -13.03125,-9.51375 0,6.51625 c 0,5.62 2.4475,8.4975 7.34375,8.645 0.27125,0.0138 0.53375,0.0213 0.78125,0.0213 1.82,0 3.4575,-0.43875 4.90625,-1.3225 l 0,1.345 c 0,2.34625 -1.17124,3.5175 -3.51625,3.5175 -0.89624,0.0888 -1.75124,0.1325 -2.56124,0.1325 -1.81125,0 -3.4075,-0.2275 -4.77875,-0.67375 l 0,4.45 c 1.67875,0.69625 3.6975,1.0425 6.0575,1.0425 0.41875,0 0.845,-0.0138 1.2825,-0.0437 6.34,0 9.51375,-2.8075 9.51375,-8.425 l 0,-23.41375 -9.51375,-0.21625 c -6.34125,0 -9.515,2.8075 -9.515,8.425 m 68.84125,10.25375 -3.95125,0 c -2.05751,0 -3.08626,-1.1725 -3.08626,-3.51875 l 0,-6.95 c 0,-2.34875 1.02875,-3.51875 3.08626,-3.51875 1.345,0 2.665,0.2475 3.95125,0.7375 l 0,13.25 z m 0,-17.3775 c -1.67625,-1.01375 -3.57501,-1.52125 -5.6875,-1.52125 -4.895,0 -7.34376,2.8825 -7.34376,8.645 l 0,6.51625 c 0,5.76125 3.17375,8.645 9.51375,8.645 l 9.51375,-0.22 0,-29.88 -5.99625,0 0,7.815 z m -76.91375,8.47125 -7.0375,0 0,-1.32625 c 0,-2.43125 1.19375,-3.68375 3.58375,-3.755 2.30249,0 3.45375,1.2525 3.45375,3.755 l 0,1.32625 z m -3.51751,-9.9925 c -6.3425,0 -9.51374,2.8825 -9.51374,8.645 l 0,6.735 c 0,5.61625 3.38875,8.42625 10.16374,8.42625 3.1575,0 6.11125,-0.40625 8.8625,-1.21875 l 0,-4.4725 c -2.23125,0.54875 -4.61875,0.8225 -7.165,0.8225 -0.56625,0 -1.1325,-0.0125 -1.6975,-0.0388 -2.7775,0 -4.17,-1.1725 -4.17,-3.51875 l 0,-1.56625 13.0325,0 0,-5.16875 c 0,-5.7625 -3.17125,-8.645 -9.5125,-8.645 m 101.535,18.89875 -3.515,0 c -2.34375,0 -3.51875,-0.81125 -3.51875,-2.43375 0,-1.76375 2.34625,-2.65125 7.03375,-2.65125 l 0,5.085 z m -0.3675,-18.70125 c -1.44875,-0.24625 -2.84625,-0.37125 -4.19,-0.37125 -2.6375,0 -5.09625,0.46375 -7.38375,1.39125 l 0,4.88875 c 2.735,-0.8575 5.10875,-1.2825 7.1225,-1.2825 0.535,0 1.05,0.03 1.54,0.0875 2.1875,0 3.27875,1.24625 3.27875,3.73375 l 0,1.3475 c -8.685,0 -13.03,2.3025 -13.03,6.90625 0,4.6075 3.1725,6.9075 9.51501,6.9075 l 9.51249,0 0,-15.16125 c 0,-4.9225 -2.12375,-7.74 -6.36499,-8.4475 m -158.83375,23.38875 5.99625,0 0,-23.36625 -5.99625,0 0,23.36625 z"
       style="fill:#003366;fill-opacity:1;fill-rule:nonzero;stroke:none"
       id="path168"
       inkscape:connector-curvature="0"
       inkscape:export-filename="/home/pgrangeiro/Projetos/pythonsudeste2017-site/images/sponsors/lojaintegrada.png"
       inkscape:export-xdpi="210.97829"
       inkscape:export-ydpi="210.97829" />
    <path
       inkscape:connector-curvature="0"
       id="path172"
       style="fill:#003366;fill-opacity:1;fill-rule:nonzero;stroke:none"
       d="m 455.98639,270.99781 c 0.8625,0 1.6575,-0.0538 2.3825,-0.16625 l 0,-4.63875 c -0.23625,0.0125 -0.47,0.0225 -0.69125,0.0225 -2.005,0 -3.005,-1.00625 -3.005,-3.0075 l 0,-21.97499 -5.8475,0 0,22.60874 c 0,4.77375 2.3875,7.15625 7.16125,7.15625"
       inkscape:export-filename="/home/pgrangeiro/Projetos/pythonsudeste2017-site/images/sponsors/lojaintegrada.png"
       inkscape:export-xdpi="210.97829"
       inkscape:export-ydpi="210.97829" />
    <path
       inkscape:connector-curvature="0"
       id="path176"
       style="fill:#003366;fill-opacity:1;fill-rule:nonzero;stroke:none"
       d="m 473.92339,262.15006 c 0,2.71 -1.285,4.0625 -3.8525,4.0625 -2.71375,0 -4.06875,-1.3525 -4.06875,-4.0625 l 0,-6.355 c 0,-2.7075 1.355,-4.06 4.06875,-4.06 2.5675,0 3.8525,1.3525 3.8525,4.06 l 0,6.355 z m -3.8525,-15.2025 c -6.60875,0 -9.91375,2.95125 -9.91375,8.8475 l 0,6.355 c 0,5.90125 3.305,8.8475 9.91375,8.8475 6.4625,0 9.695,-2.94625 9.695,-8.8475 l 0,-6.355 c 0,-5.89625 -3.2325,-8.8475 -9.695,-8.8475"
       inkscape:export-filename="/home/pgrangeiro/Projetos/pythonsudeste2017-site/images/sponsors/lojaintegrada.png"
       inkscape:export-xdpi="210.97829"
       inkscape:export-ydpi="210.97829" />
    <path
       inkscape:connector-curvature="0"
       id="path180"
       style="fill:#003366;fill-opacity:1;fill-rule:nonzero;stroke:none"
       d="m 476.58452,277.88006 c 1.27125,0.6375 2.9475,0.9575 5.0375,0.9575 4.7725,0 7.15875,-2.38875 7.15875,-7.16125 l 0,-24.09375 -5.845,0 0,23.45875 c 0,2.005 -1.00125,3.00875 -3.0075,3.00875 -1.0025,0 -2.11625,-0.13 -3.34375,-0.38125 l 0,4.21125 z"
       inkscape:export-filename="/home/pgrangeiro/Projetos/pythonsudeste2017-site/images/sponsors/lojaintegrada.png"
       inkscape:export-xdpi="210.97829"
       inkscape:export-ydpi="210.97829" />
    <path
       inkscape:connector-curvature="0"
       id="path184"
       style="fill:#003366;fill-opacity:1;fill-rule:nonzero;stroke:none"
       d="m 503.5059,265.79019 -3.4275,0 c -2.28375,0 -3.43,-0.79125 -3.43,-2.36875 0,-1.7225 2.28625,-2.585 6.8575,-2.585 l 0,4.95375 z m -0.35875,-18.23 c -1.41125,-0.23875 -2.77125,-0.35875 -4.08751,-0.35875 -2.5675,0 -4.96625,0.44875 -7.19625,1.355 l 0,4.765 c 2.665,-0.8325 4.9825,-1.25 6.94125,-1.25 0.5225,0 1.0275,0.0275 1.50375,0.0863 2.13126,0 3.1975,1.21 3.1975,3.64 l 0,1.31625 c -8.46875,0 -12.7025,2.24125 -12.7025,6.7275 0,4.49 3.09125,6.73375 9.275,6.73375 l 9.275,0 0,-14.7775 c 0,-4.7975 -2.07125,-7.54375 -6.20625,-8.2375"
       inkscape:export-filename="/home/pgrangeiro/Projetos/pythonsudeste2017-site/images/sponsors/lojaintegrada.png"
       inkscape:export-xdpi="210.97829"
       inkscape:export-ydpi="210.97829" />
    <path
       d="m 488.79289,241.87944 -5.8425,0 0,3.8475 5.8425,0 0,-3.8475 z"
       style="fill:#003366;fill-opacity:1;fill-rule:nonzero;stroke:none"
       id="path186"
       inkscape:connector-curvature="0"
       inkscape:export-filename="/home/pgrangeiro/Projetos/pythonsudeste2017-site/images/sponsors/lojaintegrada.png"
       inkscape:export-xdpi="210.97829"
       inkscape:export-ydpi="210.97829" />
    <path
       inkscape:connector-curvature="0"
       id="path190"
       style="fill:#003366;fill-opacity:1;fill-rule:nonzero;stroke:none"
       d="m 688.84652,249.39131 c 0.195,0 0.385,-0.0362 0.56125,-0.1125 0.18,-0.0725 0.2675,-0.225 0.2675,-0.44875 0,-0.2075 -0.08,-0.35 -0.24375,-0.415 -0.1625,-0.0713 -0.335,-0.105 -0.51125,-0.105 l -0.6225,0 0,1.08125 0.54875,0 z m -1.23,-1.66 1.33375,0 c 0.1775,0 0.34875,0.02 0.51875,0.0588 0.1675,0.0387 0.31875,0.105 0.45,0.1925 0.135,0.0875 0.24125,0.2025 0.31875,0.34125 0.0813,0.14 0.12,0.3125 0.12,0.52125 0,0.2725 -0.0787,0.5 -0.23625,0.67375 -0.15875,0.17 -0.37125,0.2875 -0.6375,0.34875 l 1.02125,1.6575 -0.83,0 -0.89,-1.5875 -0.4875,0 0,1.5875 -0.68125,0 0,-3.79375 z m -1.5275,1.91125 c 0,0.38625 0.0737,0.7525 0.2225,1.09625 0.1475,0.34625 0.35,0.6525 0.6075,0.91375 0.25625,0.26375 0.55625,0.46875 0.905,0.615 0.345,0.14875 0.71625,0.2225 1.10875,0.2225 0.3975,0 0.76875,-0.0737 1.11375,-0.2225 0.345,-0.14625 0.64875,-0.35125 0.905,-0.615 0.2575,-0.26125 0.46,-0.5675 0.6075,-0.91375 0.1475,-0.34375 0.2225,-0.71 0.2225,-1.09625 0,-0.3925 -0.075,-0.76375 -0.2225,-1.11 -0.1475,-0.3475 -0.35,-0.6475 -0.6075,-0.90375 -0.25625,-0.25875 -0.56,-0.46125 -0.905,-0.6075 -0.345,-0.1525 -0.71625,-0.2225 -1.11375,-0.2225 -0.3925,0 -0.76375,0.07 -1.10875,0.2225 -0.34875,0.14625 -0.64875,0.34875 -0.905,0.6075 -0.2575,0.25625 -0.46,0.55625 -0.6075,0.90375 -0.14875,0.34625 -0.2225,0.7175 -0.2225,1.11 m -0.53625,0 c 0,-0.46375 0.09,-0.90125 0.2675,-1.31125 0.18,-0.41 0.42125,-0.76625 0.72625,-1.06625 0.30625,-0.3025 0.665,-0.54249 1.07625,-0.71999 0.41125,-0.17875 0.84625,-0.26625 1.31,-0.26625 0.465,0 0.90375,0.0875 1.31375,0.26625 0.40875,0.1775 0.7675,0.41749 1.07375,0.71999 0.30875,0.3 0.55,0.65625 0.72875,1.06625 0.1775,0.41 0.265,0.8475 0.265,1.31125 0,0.46375 -0.0875,0.90125 -0.265,1.30375 -0.17875,0.405 -0.42,0.7625 -0.72875,1.0625 -0.30625,0.3025 -0.665,0.53625 -1.07375,0.71 -0.41,0.17375 -0.84875,0.25875 -1.31375,0.25875 -0.46375,0 -0.89875,-0.085 -1.31,-0.25875 -0.41125,-0.17375 -0.77,-0.4075 -1.07625,-0.71 -0.305,-0.3 -0.54625,-0.6575 -0.72625,-1.0625 -0.1775,-0.4025 -0.2675,-0.84 -0.2675,-1.30375"
       inkscape:export-filename="/home/pgrangeiro/Projetos/pythonsudeste2017-site/images/sponsors/lojaintegrada.png"
       inkscape:export-xdpi="210.97829"
       inkscape:export-ydpi="210.97829" />
  </g>
</svg>
